# xmcd
#
# Track frame offsets:
#	150
#	14971
#	29595
#	45401
#	59840
#	75355
#	88153
#	103897
#	117767
#	130449
#	145674
#	160578
#
# Disc length: 2334 seconds
# Revision: 0
# Processed by: cddbd v1.5.2PL0 Copyright (c) Steve Scherf et al.
# Submitted via: dBpowerAMP V12.0
#
DISCID=a4091c0c
DTITLE=Dawn Kinnard - Wrong Side Of The Dream
DYEAR=2010
DGENRE=Country
TTITLE0=Father Couldn't Break It To You
TTITLE1=Indescribably Blue
TTITLE2=My Favorite Ghost
TTITLE3=Death Is A Shark
TTITLE4=Japan
TTITLE5=The Cost Of Love
TTITLE6=Bicycle
TTITLE7=The Silence Is Not What It Seems
TTITLE8=Are You Still Crazy About Yourself
TTITLE9=Jail Last Night
TTITLE10=Dealer Of The Dark
TTITLE11=Queen Of The World
EXTD=
EXTT0=
EXTT1=
EXTT2=
EXTT3=
EXTT4=
EXTT5=
EXTT6=
EXTT7=
EXTT8=
EXTT9=
EXTT10=
EXTT11=
PLAYORDER=
